<svg xmlns="http://www.w3.org/2000/svg" viewBox="0 0 512 512">
<rect width="512" height="512" rx="104" fill="#090909"/>
<path d="M112 174 Q256 82 400 174" fill="none" stroke="#f4f4f4" stroke-width="28" stroke-linecap="round"/>
<path d="M112 174 Q256 108 400 174" fill="none" stroke="#bfc2c7" stroke-width="7" stroke-linecap="round"/>
<g fill="#ef233c" stroke="#780815" stroke-width="4">
<path d="M45 99 L82 82 L111 234 L73 248 Z"/><path d="M78 91 L115 80 L137 225 L101 237 Z"/><path d="M110 94 L144 90 L158 214 L126 224 Z"/>
<path d="M467 99 L430 82 L401 234 L439 248 Z"/><path d="M434 91 L397 80 L375 225 L411 237 Z"/><path d="M402 94 L368 90 L354 214 L386 224 Z"/>
</g>
<g fill="#d7d9dd"><rect x="23" y="144" width="25" height="55" rx="7"/><rect x="464" y="144" width="25" height="55" rx="7"/></g>
<g stroke="#fff" stroke-width="7" stroke-linecap="round">
<path d="M180 153 L175 129"/><path d="M213 137 L210 109"/><path d="M246 130 L246 99"/>
<path d="M279 137 L282 109"/><path d="M312 153 L317 129"/>
</g>
<path d="M154 243 Q256 296 358 243" fill="none" stroke="#ef233c" stroke-width="9" stroke-linecap="round"/>
<path d="M256 258 L256 145 L232 254 Z" fill="#ef233c"/>
<circle cx="256" cy="258" r="24" fill="#090909" stroke="#ef233c" stroke-width="10"/>
<text x="256" y="389" text-anchor="middle" font-family="Arial Black,Impact,sans-serif" font-size="68" font-weight="900" fill="#fff">B<tspan fill="#ef233c">&amp;</tspan>S</text>
</svg>