<svg xmlns="http://www.w3.org/2000/svg" viewBox="0 0 512 512">
<rect width="512" height="512" rx="104" fill="#090909"/>
<path d="M112 154 Q256 70 400 154" fill="none" stroke="#5f6267" stroke-width="36" stroke-linecap="round"/>
<path d="M112 148 Q256 72 400 148" fill="none" stroke="#f4f4f4" stroke-width="25" stroke-linecap="round"/>
<g fill="#ef233c" stroke="#780815" stroke-width="4">
  <path d="M45 79 L82 62 L111 214 L73 228 Z"/>
  <path d="M78 71 L115 60 L137 205 L101 217 Z"/>
  <path d="M110 74 L144 70 L158 194 L126 204 Z"/>
  <path d="M467 79 L430 62 L401 214 L439 228 Z"/>
  <path d="M434 71 L397 60 L375 205 L411 217 Z"/>
  <path d="M402 74 L368 70 L354 194 L386 204 Z"/>
</g>
<g fill="#d7d9dd">
  <rect x="23" y="124" width="25" height="55" rx="7"/>
  <rect x="464" y="124" width="25" height="55" rx="7"/>
</g>
<!-- Marks are entirely below the bar -->
<g stroke="#fff" stroke-width="7" stroke-linecap="round">
  <path d="M174 176 L169 199"/>
  <path d="M207 162 L203 189"/>
  <path d="M240 156 L240 186"/>
  <path d="M272 156 L272 186"/>
  <path d="M305 162 L309 189"/>
  <path d="M338 176 L343 199"/>
</g>
<path d="M154 235 Q256 288 358 235" fill="none" stroke="#ef233c" stroke-width="9" stroke-linecap="round"/>
<path d="M256 250 L256 174 L232 246 Z" fill="#ef233c"/>
<circle cx="256" cy="250" r="24" fill="#090909" stroke="#ef233c" stroke-width="10"/>
<text x="256" y="390" text-anchor="middle" font-family="Arial Black,Impact,sans-serif" font-size="68" font-weight="900" fill="#fff">
  B<tspan fill="#ef233c">&amp;</tspan>S
</text>
</svg>
