<svg xmlns="http://www.w3.org/2000/svg" viewBox="0 0 720 310" role="img" aria-labelledby="title">
<title>Barbell and Scale</title>
<rect width="720" height="310" fill="#090909"/>
<g transform="translate(30 14)">
  <path d="M150 90 Q330 18 510 90" fill="none" stroke="#f5f5f5" stroke-width="24" stroke-linecap="round"/>
  <path d="M150 90 Q330 35 510 90" fill="none" stroke="#bfc2c7" stroke-width="6" stroke-linecap="round"/>
  <g fill="#ef233c" stroke="#780815" stroke-width="3">
    <path d="M68 32 L103 20 L126 134 L91 146 Z"/>
    <path d="M101 25 L135 17 L153 128 L120 137 Z"/>
    <path d="M132 27 L163 25 L174 119 L145 126 Z"/>
    <path d="M592 32 L557 20 L534 134 L569 146 Z"/>
    <path d="M559 25 L525 17 L507 128 L540 137 Z"/>
    <path d="M528 27 L497 25 L486 119 L515 126 Z"/>
  </g>
  <g fill="#d7d9dd">
    <rect x="51" y="69" width="22" height="42" rx="6"/>
    <rect x="584" y="69" width="22" height="42" rx="6"/>
    <rect x="145" y="62" width="22" height="45" rx="7" transform="rotate(-11 156 84)"/>
    <rect x="493" y="62" width="22" height="45" rx="7" transform="rotate(11 504 84)"/>
  </g>
  <!-- scale gauge ticks -->
  <g stroke="#ffffff" stroke-width="5" stroke-linecap="round">
    <path d="M224 72 L220 55"/><path d="M251 62 L248 43"/><path d="M279 55 L277 35"/>
    <path d="M307 51 L306 29"/><path d="M335 50 L335 27"/><path d="M363 51 L364 29"/>
    <path d="M391 55 L393 35"/><path d="M419 62 L422 43"/><path d="M446 72 L450 55"/>
  </g>
  <!-- gauge needle and lower scale arc -->
  <path d="M235 133 Q330 174 425 133" fill="none" stroke="#ef233c" stroke-width="6" stroke-linecap="round"/>
  <path d="M330 145 L330 78 L312 143 Z" fill="#ef233c"/>
  <circle cx="330" cy="145" r="17" fill="#090909" stroke="#ef233c" stroke-width="7"/>
</g>
<text x="360" y="235" text-anchor="middle" font-family="Arial Black,Impact,sans-serif" font-size="58" font-weight="900" fill="#f4f4f4" letter-spacing="1">BARBELL <tspan fill="#ef233c">&amp;</tspan> SCALE</text>
<line x1="55" y1="270" x2="138" y2="270" stroke="#ef233c" stroke-width="5"/>
<line x1="582" y1="270" x2="665" y2="270" stroke="#ef233c" stroke-width="5"/>
<text x="360" y="280" text-anchor="middle" font-family="Arial,Helvetica,sans-serif" font-size="24" font-weight="800" fill="#ef233c" letter-spacing="7">TALK. TRAIN. TRACK.</text>
</svg>