<svg xmlns="http://www.w3.org/2000/svg" viewBox="0 0 56 56" role="img" aria-label="Scale">
  <defs><linearGradient id="r" x1="0" y1="0" x2="1" y2="1"><stop stop-color="#ff4b5f"/><stop offset="1" stop-color="#c8102e"/></linearGradient></defs>
  <path d="M10 12h36c3 0 5 2 5 5v27c0 4-3 7-7 7H12c-4 0-7-3-7-7V17c0-3 2-5 5-5Z" fill="#1b1b1d" stroke="#d7d7da" stroke-width="2"/>
  <path d="M13 16h30a3 3 0 0 1 3 3v12H10V19a3 3 0 0 1 3-3Z" fill="#f4f4f5"/>
  <path d="M16 28a12 12 0 0 1 24 0" fill="none" stroke="#a3a3a8" stroke-width="2"/>
  <g stroke="#222" stroke-width="1.5"><path d="M18 25l-2-2"/><path d="M23 21l-1-3"/><path d="M28 20v-4"/><path d="M33 21l1-3"/><path d="M38 25l2-2"/></g>
  <path d="M28 28l4-9" stroke="url(#r)" stroke-width="3" stroke-linecap="round"/>
  <circle cx="28" cy="28" r="3.4" fill="url(#r)"/>
</svg>
