<svg xmlns="http://www.w3.org/2000/svg" viewBox="0 0 256 256">
<rect width="256" height="256" rx="48" fill="#171717"/>
<circle cx="128" cy="128" r="92" fill="#101010" stroke="#ef233c" stroke-width="8"/>
<!-- barbell -->
<rect x="56" y="120" width="144" height="10" rx="5" fill="#d9d9d9"/>
<rect x="66" y="108" width="6" height="34" fill="#ef233c"/>
<rect x="76" y="104" width="8" height="42" fill="#ef233c"/>
<rect x="172" y="108" width="6" height="34" fill="#ef233c"/>
<rect x="180" y="104" width="8" height="42" fill="#ef233c"/>
<!-- eyes -->
<circle cx="98" cy="108" r="10" fill="#fff"/>
<circle cx="158" cy="108" r="10" fill="#fff"/>
<circle cx="98" cy="108" r="4" fill="#111"/>
<circle cx="158" cy="108" r="4" fill="#111"/>
<!-- knurl mouth -->
<line x1="110" y1="145" x2="146" y2="145" stroke="#cfcfcf" stroke-width="5"/>
<line x1="114" y1="140" x2="114" y2="150" stroke="#777" stroke-width="1"/>
<line x1="120" y1="140" x2="120" y2="150" stroke="#777" stroke-width="1"/>
<line x1="126" y1="140" x2="126" y2="150" stroke="#777" stroke-width="1"/>
<line x1="132" y1="140" x2="132" y2="150" stroke="#777" stroke-width="1"/>
<line x1="138" y1="140" x2="138" y2="150" stroke="#777" stroke-width="1"/>
<!-- scale smile -->
<path d="M88 162 Q128 196 168 162" fill="none" stroke="#ef233c" stroke-width="7" stroke-linecap="round"/>
<line x1="128" y1="162" x2="128" y2="176" stroke="#ef233c" stroke-width="4"/>
<path d="M116 176 Q128 184 140 176" fill="none" stroke="#ef233c" stroke-width="4"/>
</svg>